<svg width="149" height="37" viewBox="0 0 149 37" fill="none" xmlns="http://www.w3.org/2000/svg">
    <path
        d="M8.13636 25.5341V24.9545C8.14773 22.9659 8.32386 21.3807 8.66477 20.1989C9.01705 19.017 9.52841 18.0625 10.1989 17.3352C10.8693 16.608 11.6761 15.9489 12.6193 15.358C13.3239 14.9034 13.9545 14.4318 14.5114 13.9432C15.0682 13.4545 15.5114 12.9148 15.8409 12.3239C16.1705 11.7216 16.3352 11.0511 16.3352 10.3125C16.3352 9.52841 16.1477 8.84091 15.7727 8.25C15.3977 7.65909 14.892 7.20454 14.2557 6.88636C13.6307 6.56818 12.9375 6.40909 12.1761 6.40909C11.4375 6.40909 10.7386 6.57386 10.0795 6.90341C9.42045 7.22159 8.88068 7.69886 8.46023 8.33523C8.03977 8.96023 7.8125 9.73864 7.77841 10.6705H0.823864C0.880682 8.39773 1.42614 6.52273 2.46023 5.04545C3.49432 3.55682 4.86364 2.44886 6.56818 1.72159C8.27273 0.982953 10.1534 0.613635 12.2102 0.613635C14.4716 0.613635 16.4716 0.988635 18.2102 1.73864C19.9489 2.47727 21.3125 3.55114 22.3011 4.96023C23.2898 6.36932 23.7841 8.06818 23.7841 10.0568C23.7841 11.3864 23.5625 12.5682 23.1193 13.6023C22.6875 14.625 22.0795 15.5341 21.2955 16.3295C20.5114 17.1136 19.5852 17.8239 18.517 18.4602C17.6193 18.9943 16.8807 19.5511 16.3011 20.1307C15.733 20.7102 15.3068 21.3807 15.0227 22.142C14.75 22.9034 14.608 23.8409 14.5966 24.9545V25.5341H8.13636ZM11.5114 36.4432C10.375 36.4432 9.40341 36.0455 8.59659 35.25C7.80114 34.4432 7.40909 33.4773 7.42045 32.3523C7.40909 31.2386 7.80114 30.2841 8.59659 29.4886C9.40341 28.6932 10.375 28.2955 11.5114 28.2955C12.5909 28.2955 13.5398 28.6932 14.358 29.4886C15.1761 30.2841 15.5909 31.2386 15.6023 32.3523C15.5909 33.1023 15.392 33.7898 15.0057 34.4148C14.6307 35.0284 14.1364 35.5227 13.5227 35.8977C12.9091 36.2614 12.2386 36.4432 11.5114 36.4432Z"
        fill="#F80000" />
    <path
        d="M22.7941 36V1.09091H36.5668C39.2032 1.09091 41.4532 1.5625 43.3168 2.50568C45.1918 3.4375 46.618 4.76136 47.5952 6.47727C48.5839 8.18182 49.0782 10.1875 49.0782 12.4943C49.0782 14.8125 48.5782 16.8068 47.5782 18.4773C46.5782 20.1364 45.1293 21.4091 43.2316 22.2955C41.3452 23.1818 39.0611 23.625 36.3793 23.625H27.1577V17.6932H35.1861C36.5952 17.6932 37.7657 17.5 38.6975 17.1136C39.6293 16.7273 40.3225 16.1477 40.777 15.375C41.243 14.6023 41.4759 13.642 41.4759 12.4943C41.4759 11.3352 41.243 10.358 40.777 9.5625C40.3225 8.76704 39.6236 8.16477 38.6805 7.75568C37.7486 7.33523 36.5725 7.125 35.152 7.125H30.1748V36H22.7941ZM41.6464 20.1136L50.3225 36H42.1748L33.6861 20.1136H41.6464ZM80.1336 18.5455C80.1336 22.3523 79.412 25.5909 77.9689 28.2614C76.537 30.9318 74.5825 32.9716 72.1052 34.3807C69.6393 35.7784 66.8666 36.4773 63.787 36.4773C60.6848 36.4773 57.9007 35.7727 55.4348 34.3636C52.9689 32.9545 51.02 30.9148 49.5882 28.2443C48.1564 25.5739 47.4405 22.3409 47.4405 18.5455C47.4405 14.7386 48.1564 11.5 49.5882 8.82955C51.02 6.15909 52.9689 4.125 55.4348 2.72727C57.9007 1.31818 60.6848 0.613635 63.787 0.613635C66.8666 0.613635 69.6393 1.31818 72.1052 2.72727C74.5825 4.125 76.537 6.15909 77.9689 8.82955C79.412 11.5 80.1336 14.7386 80.1336 18.5455ZM72.6507 18.5455C72.6507 16.0795 72.2814 14 71.5427 12.3068C70.8155 10.6136 69.787 9.32955 68.4575 8.45455C67.128 7.57955 65.5711 7.14205 63.787 7.14205C62.003 7.14205 60.4461 7.57955 59.1166 8.45455C57.787 9.32955 56.753 10.6136 56.0143 12.3068C55.287 14 54.9234 16.0795 54.9234 18.5455C54.9234 21.0114 55.287 23.0909 56.0143 24.7841C56.753 26.4773 57.787 27.7614 59.1166 28.6364C60.4461 29.5114 62.003 29.9489 63.787 29.9489C65.5711 29.9489 67.128 29.5114 68.4575 28.6364C69.787 27.7614 70.8155 26.4773 71.5427 24.7841C72.2814 23.0909 72.6507 21.0114 72.6507 18.5455ZM111.441 18.5455C111.441 22.3523 110.719 25.5909 109.276 28.2614C107.844 30.9318 105.889 32.9716 103.412 34.3807C100.946 35.7784 98.1735 36.4773 95.0939 36.4773C91.9916 36.4773 89.2076 35.7727 86.7416 34.3636C84.2757 32.9545 82.3269 30.9148 80.8951 28.2443C79.4632 25.5739 78.7473 22.3409 78.7473 18.5455C78.7473 14.7386 79.4632 11.5 80.8951 8.82955C82.3269 6.15909 84.2757 4.125 86.7416 2.72727C89.2076 1.31818 91.9916 0.613635 95.0939 0.613635C98.1735 0.613635 100.946 1.31818 103.412 2.72727C105.889 4.125 107.844 6.15909 109.276 8.82955C110.719 11.5 111.441 14.7386 111.441 18.5455ZM103.958 18.5455C103.958 16.0795 103.588 14 102.85 12.3068C102.122 10.6136 101.094 9.32955 99.7644 8.45455C98.4348 7.57955 96.878 7.14205 95.0939 7.14205C93.3098 7.14205 91.753 7.57955 90.4235 8.45455C89.0939 9.32955 88.0598 10.6136 87.3212 12.3068C86.5939 14 86.2303 16.0795 86.2303 18.5455C86.2303 21.0114 86.5939 23.0909 87.3212 24.7841C88.0598 26.4773 89.0939 27.7614 90.4235 28.6364C91.753 29.5114 93.3098 29.9489 95.0939 29.9489C96.878 29.9489 98.4348 29.5114 99.7644 28.6364C101.094 27.7614 102.122 26.4773 102.85 24.7841C103.588 23.0909 103.958 21.0114 103.958 18.5455ZM110.668 1.09091H119.77L129.384 24.5455H129.793L139.406 1.09091H148.509V36H141.35V13.2784H141.06L132.026 35.8295H127.151L118.117 13.1932H117.827V36H110.668V1.09091Z"
        fill="black" />
</svg>